<svg width="55" height="55" viewBox="0 0 55 55" fill="none" xmlns="http://www.w3.org/2000/svg">
<path d="M27.5 30.9793C10.9745 30.9793 1.87344 38.797 1.87344 52.9927C1.87344 54.1014 2.77203 55 3.88073 55H51.1192C52.2279 55 53.1265 54.1014 53.1265 52.9927C53.1266 38.7978 44.0255 30.9793 27.5 30.9793ZM5.96106 50.9854C6.75061 40.3715 13.9869 34.994 27.5 34.994C41.0131 34.994 48.2495 40.3715 49.0397 50.9854H5.96106V50.9854Z" fill="#EC7000"/>
<path d="M27.5 0C19.909 0 14.1849 5.83924 14.1849 13.5821C14.1849 21.5517 20.158 28.0346 27.5 28.0346C34.842 28.0346 40.815 21.5517 40.815 13.5827C40.815 5.83924 35.091 0 27.5 0ZM27.5 24.0207C22.3713 24.0207 18.1995 19.3383 18.1995 13.5827C18.1995 8.03859 22.1111 4.01457 27.5 4.01457C32.8027 4.01457 36.8005 8.12754 36.8005 13.5827C36.8005 19.3383 32.6286 24.0207 27.5 24.0207Z" fill="#EC7000"/>
</svg>
