<svg width="31" height="31" viewBox="0 0 31 31" fill="none" xmlns="http://www.w3.org/2000/svg">
<path d="M25.3014 28.6256H5.24263V30.905H25.3014V28.6256Z" fill="#EC7000"/>
<path d="M18.8811 10.2764H11.853C11.2235 10.2764 10.7132 10.7866 10.7132 11.4161C10.7132 12.0456 11.2235 12.5558 11.853 12.5558H18.8811C19.5106 12.5558 20.0209 12.0456 20.0209 11.4161C20.0209 10.7866 19.5106 10.2764 18.8811 10.2764Z" fill="#EC7000"/>
<path d="M24.1997 15.595H11.853C11.2235 15.595 10.7132 16.1052 10.7132 16.7347C10.7132 17.3642 11.2235 17.8744 11.853 17.8744H24.1998C24.8293 17.8744 25.3395 17.3642 25.3395 16.7347C25.3395 16.1052 24.8292 15.595 24.1997 15.595Z" fill="#EC7000"/>
<path d="M30.3284 0.233652C29.9192 0.0497715 29.4409 0.122367 29.1051 0.419047L25.9135 3.24247L22.7182 0.385201C22.2854 -0.00193557 21.6313 -0.00193557 21.1986 0.385201L18.0074 3.23902L14.8158 0.385201C14.3831 -0.00193557 13.7293 -0.00193557 13.2966 0.385201L10.1012 3.24247L6.90967 0.419047C6.57424 0.12273 6.09556 0.0501348 5.68638 0.233652C5.27763 0.417897 5.01473 0.824408 5.01473 1.2727V21.5595H1.13973C0.510228 21.5594 0 22.0696 0 22.6991V25.4724C0 28.4679 2.43707 30.905 5.43257 30.905V28.6256C3.69378 28.6256 2.27941 27.2109 2.27941 25.4724V23.8389H20.1348V25.4724C20.1348 28.4679 22.5719 30.9051 25.5674 30.9051C28.5629 30.9051 30.9999 28.468 30.9999 25.4725V1.27264C31 0.824348 30.7371 0.417897 30.3284 0.233652ZM28.7206 25.4724C28.7206 27.2109 27.3059 28.6256 25.5674 28.6256C23.829 28.6256 22.4143 27.2109 22.4143 25.4724V22.6991C22.4143 22.0696 21.904 21.5594 21.2745 21.5594H7.29414V3.80241L9.35056 5.62178C9.78365 6.00474 10.4348 6.0028 10.8652 5.6176L14.0564 2.76379L17.2476 5.61724C17.6803 6.00438 18.3344 6.00438 18.7672 5.61724L21.9587 2.76342L25.1499 5.61724C25.5807 6.00244 26.2319 6.00395 26.6645 5.62142L28.7206 3.80247V25.4724V25.4724Z" fill="#EC7000"/>
</svg>
