<svg width="26" height="25" viewBox="0 0 26 25" fill="none" xmlns="http://www.w3.org/2000/svg">
<g clip-path="url(#clip0)">
<path d="M25.2564 23.3408L19.1552 17.2397C20.6717 15.416 21.5854 13.0741 21.5854 10.5225C21.5854 4.72035 16.8652 0 11.0633 0C5.26136 0 0.541138 4.72035 0.541138 10.5225C0.541138 16.3242 5.26136 21.0441 11.0633 21.0441C13.6149 21.0441 15.9568 20.1306 17.7805 18.6141L23.8819 24.7153C24.0716 24.9051 24.3204 25 24.5691 25C24.8178 25 25.0667 24.9051 25.2565 24.7153C25.6361 24.3357 25.6361 23.7203 25.2564 23.3408ZM2.48511 10.5225C2.48511 5.79226 6.33327 1.94397 11.0633 1.94397C15.7933 1.94397 19.6413 5.79226 19.6413 10.5225C19.6413 15.2523 15.7933 19.1002 11.0633 19.1002C6.33327 19.1002 2.48511 15.2523 2.48511 10.5225Z" fill="#EC7000"/>
</g>
<defs>
<clipPath id="clip0">
<rect width="25" height="25" fill="white" transform="translate(0.541138)"/>
</clipPath>
</defs>
</svg>
