<svg width="25" height="25" viewBox="0 0 25 25" fill="none" xmlns="http://www.w3.org/2000/svg">
<g clip-path="url(#clip0)">
<path d="M19.1965 14.2855H18.3036C18.1731 14.2855 18.0661 14.3273 17.9829 14.4113C17.8989 14.4947 17.8571 14.6017 17.8571 14.732V19.1962C17.8571 19.8101 17.6387 20.3355 17.2016 20.7727C16.7645 21.2097 16.239 21.4281 15.6251 21.4281H4.01778C3.40395 21.4281 2.87842 21.2097 2.44124 20.7727C2.00415 20.3355 1.78563 19.8101 1.78563 19.1962V7.58906C1.78563 6.97523 2.0041 6.44989 2.44124 6.01276C2.87842 5.57557 3.40395 5.3571 4.01778 5.3571H13.8391C13.9695 5.3571 14.0765 5.31513 14.1601 5.23152C14.2438 5.14782 14.2855 5.04095 14.2855 4.91063V4.01765C14.2855 3.88757 14.2438 3.78051 14.1601 3.69695C14.0765 3.61325 13.9695 3.57147 13.8391 3.57147H4.01778C2.91111 3.57147 1.96472 3.96443 1.17869 4.75031C0.392963 5.53614 0 6.48253 0 7.5892V19.1964C0 20.303 0.392963 21.2496 1.17874 22.0352C1.96477 22.8211 2.91116 23.2142 4.01783 23.2142H15.6251C16.7317 23.2142 17.6782 22.8211 18.4641 22.0352C19.2501 21.2496 19.6431 20.3031 19.6431 19.1964V14.7323C19.6431 14.6019 19.6012 14.4949 19.5173 14.4113C19.4336 14.3273 19.3266 14.2855 19.1965 14.2855Z" fill="#EC7000"/>
<path d="M24.7348 2.05087C24.5581 1.87412 24.3485 1.78583 24.1069 1.78583H16.9641C16.7223 1.78583 16.5129 1.87412 16.3363 2.05087C16.1596 2.22751 16.0711 2.43679 16.0711 2.67862C16.0711 2.92045 16.1596 3.12978 16.3363 3.30652L18.7916 5.76183L9.69577 14.8579C9.60263 14.9509 9.55621 15.0579 9.55621 15.1786C9.55621 15.2997 9.60278 15.4067 9.69577 15.4997L11.2862 17.0899C11.3792 17.1829 11.4862 17.2292 11.6071 17.2292C11.728 17.2292 11.835 17.1829 11.928 17.0899L21.0238 7.99398L23.4793 10.4493C23.6559 10.626 23.8652 10.7144 24.107 10.7144C24.3489 10.7144 24.5582 10.626 24.735 10.4493C24.9117 10.2726 25 10.0634 25 9.82153V2.67862C25 2.43664 24.9114 2.22751 24.7348 2.05087Z" fill="#EC7000"/>
</g>
<defs>
<clipPath id="clip0">
<rect width="25" height="25" fill="white"/>
</clipPath>
</defs>
</svg>
