<svg width="33" height="25" viewBox="0 0 33 25" fill="none" xmlns="http://www.w3.org/2000/svg">
<path d="M31.9984 8.11219L24.0383 0.325674C23.5942 -0.108667 22.8742 -0.108536 22.4301 0.325935C22.217 0.534501 22.0973 0.81724 22.0972 1.11217V4.44923H14.1371C13.5091 4.44923 12.9999 4.94725 12.9999 5.56161C12.9999 6.17597 13.5091 6.67399 14.1371 6.67399H23.2344C23.8624 6.67399 24.3715 6.17597 24.3715 5.56161V3.79733L29.5865 8.89862L24.3715 13.9999V12.2357C24.3715 11.6213 23.8624 11.1233 23.2344 11.1233H10.7257V7.78624C10.7255 7.17188 10.2163 6.67399 9.5883 6.67412C9.28687 6.67419 8.99776 6.79131 8.78454 6.99981L0.824543 14.7863C0.380588 15.2207 0.380588 15.9248 0.824543 16.3592L8.78461 24.1457C8.99783 24.3543 9.287 24.4716 9.58857 24.4716C9.73802 24.4721 9.88613 24.4434 10.0241 24.3871C10.4489 24.2148 10.7258 23.8092 10.7257 23.3593V20.0222H18.6857C19.3138 20.0222 19.8229 19.5242 19.8229 18.9098C19.8229 18.2955 19.3138 17.7974 18.6857 17.7974H9.58857C8.96051 17.7974 8.45139 18.2955 8.45139 18.9098V20.674L3.23641 15.5728L8.45139 10.4715V12.2357C8.45139 12.85 8.96051 13.3481 9.58857 13.3481H22.0972V16.6851C22.0973 17.2995 22.6066 17.7974 23.2346 17.7972C23.536 17.7972 23.8251 17.6801 24.0383 17.4716L31.9984 9.68504C32.4423 9.25064 32.4423 8.54653 31.9984 8.11219Z" fill="#EC7000"/>
</svg>
