<svg width="31" height="31" fill="none" xmlns="http://www.w3.org/2000/svg"><path d="M18.406 5.813H6.781a.97.97 0 000 1.937h11.625a.97.97 0 000-1.938zm-3.875 3.875h-7.75a.97.97 0 000 1.937h7.75a.97.97 0 000-1.938z" fill="#EC7000"/><path d="M21.313 0H3.875A3.879 3.879 0 000 3.875V23.25a.968.968 0 001.589.744l5.543-4.619h14.18a3.879 3.879 0 003.875-3.875V3.875A3.879 3.879 0 0021.313 0zm1.937 15.5a1.94 1.94 0 01-1.938 1.938H6.783a.967.967 0 00-.62.224l-4.224 3.52V3.876a1.94 1.94 0 011.937-1.938h17.438a1.94 1.94 0 011.937 1.938V15.5z" fill="#EC7000"/><path d="M27.125 7.75a.97.97 0 000 1.938c1.07 0 1.938.87 1.938 1.937v16.39l-3.271-2.616a.976.976 0 00-.605-.212H11.626a1.94 1.94 0 01-1.938-1.937v-.969a.97.97 0 00-1.937 0v.969a3.879 3.879 0 003.875 3.875h13.221l4.579 3.664a.978.978 0 001.027.116.972.972 0 00.548-.874V11.625a3.879 3.879 0 00-3.875-3.875z" fill="#EC7000"/></svg>